<svg width="716" height="716" viewBox="0 0 716 716" fill="none" xmlns="http://www.w3.org/2000/svg">
<path d="M508.749 317.399C516.777 287.314 508.991 253.884 485.389 230.282C461.788 206.681 428.36 198.895 398.273 206.923C376.231 184.928 343.39 174.956 311.148 183.596C278.906 192.234 255.45 217.292 247.36 247.361C217.291 255.451 192.233 278.91 183.595 311.149C174.957 343.391 184.927 376.232 206.924 398.274C198.896 428.359 206.683 461.789 230.284 485.391C253.885 508.992 287.313 516.779 317.401 508.75C339.442 530.745 372.286 540.717 404.525 532.079C436.767 523.441 460.223 498.384 468.313 468.315C498.383 460.224 523.44 436.766 532.078 404.526C540.716 372.285 530.747 339.443 508.749 317.402V317.399ZM470.899 244.776C486.892 260.77 493.488 282.601 490.687 303.412L415.577 260.046C412.411 258.218 408.509 258.218 405.345 260.046L317.401 310.82V277.526C317.401 275.191 318.652 273.005 320.676 271.837L387.644 233.174C414.178 218.353 448.346 222.223 470.901 244.777H470.899ZM357.837 311.144L398.275 334.491V381.185L357.837 404.532L317.398 381.185V334.491L357.837 311.144ZM264.776 269.693C265.207 239.68 279.17 211.952 302.207 193.919L317.401 277.526V310.82L224.726 260.991C246.143 250.579 263.631 238.59 264.776 269.693ZM221.676 305.517C226.994 281.572 242.09 260.373 263.268 247.591L317.401 310.82L242.292 354.186C238.456 337.481 231.259 319.805 221.676 305.517ZM221.676 410.158C205.683 394.165 199.087 372.334 201.888 351.523L277.071 394.939C280.236 396.768 284.139 396.768 287.303 394.939L375.274 344.152V377.446C375.274 379.781 374.023 381.967 372 383.133L305.032 421.797C278.499 436.618 244.328 432.748 221.676 410.158ZM245.772 471.023C229.519 454.827 223.151 433.276 226.096 412.685L301.279 456.101C304.443 457.929 308.347 457.929 311.511 456.101L399.482 405.314V438.608C399.482 440.943 398.231 443.129 396.207 444.297L329.239 482.961C302.705 497.782 268.534 493.912 245.772 471.023ZM398.275 431.292L450.878 400.928C450.857 423.463 437.93 444.822 417.404 456.101L398.275 466.844V431.292ZM398.275 387.738L357.837 411.087L317.399 387.738V340.94L357.837 317.593L398.275 340.94V387.738Z" fill="white"/>
</svg>
